<svg id="visual" viewBox="0 0 360 640" width="360" height="640" xmlns="http://www.w3.org/2000/svg" xmlns:xlink="http://www.w3.org/1999/xlink" version="1.1"><rect x="0" y="0" width="360" height="640" fill="#ced9f9"></rect><path d="M0 316L15 320.8C30 325.7 60 335.3 90 323C120 310.7 150 276.3 180 267.3C210 258.3 240 274.7 270 292.3C300 310 330 329 345 338.5L360 348L360 0L345 0C330 0 300 0 270 0C240 0 210 0 180 0C150 0 120 0 90 0C60 0 30 0 15 0L0 0Z" fill="#bacaf9" stroke-linecap="round" stroke-linejoin="miter"></path></svg>