<svg id="visual" viewBox="0 0 960 540" width="960" height="540" xmlns="http://www.w3.org/2000/svg" xmlns:xlink="http://www.w3.org/1999/xlink" version="1.1"><rect x="0" y="0" width="960" height="540" fill="#ced9f9"></rect><path d="M0 266L40 270.2C80 274.3 160 282.7 240 272.3C320 262 400 233 480 225.3C560 217.7 640 231.3 720 246.3C800 261.3 880 277.7 920 285.8L960 294L960 0L920 0C880 0 800 0 720 0C640 0 560 0 480 0C400 0 320 0 240 0C160 0 80 0 40 0L0 0Z" fill="#bacaf9" stroke-linecap="round" stroke-linejoin="miter"></path></svg>